<?xml version="1.0" encoding="utf-8"?>
<!-- Generator: Adobe Illustrator 17.0.2, SVG Export Plug-In . SVG Version: 6.00 Build 0)  -->
<!DOCTYPE svg PUBLIC "-//W3C//DTD SVG 1.1//EN" "http://www.w3.org/Graphics/SVG/1.1/DTD/svg11.dtd">
<svg version="1.1" id="Layer_1" xmlns="http://www.w3.org/2000/svg" xmlns:xlink="http://www.w3.org/1999/xlink" x="0px" y="0px"
	 width="112px" height="112px" viewBox="0 0 112 112" enable-background="new 0 0 112 112" xml:space="preserve">
<g>
	
		<image overflow="visible" opacity="0.2" width="2811" height="3081" xlink:href="E5620BB882B5BEBE.png"  transform="matrix(0.0353 0 0 0.0353 11.5983 1.6732)">
	</image>
	<g>
		<g>
			<path d="M65.841,76.539c0-16.66-14.214-18.714-18.297-18.714H35.405v36.822h8.661C57.071,94.646,65.841,90.623,65.841,76.539z"/>
		</g>
		<g>
			<path d="M62.619,1.462c12.64,3.481,18.645,11.463,18.645,25.306c0,10.753-6.049,17.871-15.575,22.111
				c12.702,4.998,19.808,13.328,19.808,27.413c0,18.174-10.887,28.624-28.276,31.653c-3.012,0.514-6.92,0.727-10.781,0.804
				c2.93,0.486,5.938,0.744,9.006,0.744c30.065,0,54.437-24.289,54.437-54.25C109.883,27.704,89.293,4.961,62.619,1.462z"/>
		</g>
		<g>
			<path d="M61.606,28.288c0-12.57-11.341-13.672-16.179-13.672H35.405v28.555h8.359C52.08,43.171,61.606,40.555,61.606,28.288z"/>
		</g>
		<g>
			<polygon points="17.702,28.102 14.684,24.447 11.639,28.091 13.464,28.384 13.208,81.378 11.387,81.663 14.405,85.318 
				17.45,81.674 15.625,81.381 15.881,28.388 			"/>
		</g>
	</g>
</g>
</svg>
