<svg id="svg" version="1.1" width="400" height="642.9166666666667" xmlns="http://www.w3.org/2000/svg" xmlns:xlink="http://www.w3.org/1999/xlink" style="display: block;"><g id="svgg"><path id="path0" d="M320.000 268.125 C 320.000 268.194,320.585 268.779,321.300 269.425 L 322.600 270.600 321.425 269.300 C 320.330 268.088,320.000 267.816,320.000 268.125 M146.800 592.525 C 146.800 592.594,147.385 593.179,148.100 593.825 L 149.400 595.000 148.225 593.700 C 147.130 592.488,146.800 592.216,146.800 592.525 " stroke="none" fill="#001c1c" fill-rule="evenodd"></path><path id="path1" d="M94.008 1.251 C 93.243 1.718,91.353 2.766,89.808 3.581 C 84.501 6.379,79.600 9.291,79.600 9.645 C 79.600 9.840,79.392 10.000,79.137 10.000 C 78.882 10.000,76.821 11.083,74.557 12.407 C 72.292 13.730,69.486 15.284,68.320 15.860 C 67.154 16.436,64.937 17.759,63.394 18.799 C 61.850 19.839,59.870 21.037,58.994 21.461 C 57.490 22.188,47.763 27.810,43.400 30.474 C 42.300 31.146,40.500 32.156,39.400 32.718 C 37.002 33.945,31.577 37.073,24.891 41.086 C 22.190 42.707,19.670 44.143,19.291 44.278 C 18.112 44.698,10.208 49.348,10.058 49.710 C 9.980 49.898,9.478 50.218,8.943 50.422 C 8.407 50.625,6.266 51.794,4.185 53.019 L 0.400 55.247 0.400 92.357 L 0.400 129.467 2.500 130.904 C 3.655 131.695,5.770 132.952,7.200 133.697 C 8.630 134.443,11.889 136.256,14.442 137.726 C 16.995 139.197,19.290 140.400,19.542 140.400 C 19.794 140.400,20.000 140.565,20.000 140.767 C 20.000 141.113,28.198 145.976,29.700 146.521 C 30.365 146.762,30.400 153.588,30.400 282.222 L 30.400 417.669 29.200 418.122 C 28.540 418.372,28.000 418.702,28.000 418.857 C 28.000 419.011,27.370 419.346,26.600 419.600 C 25.830 419.854,25.200 420.228,25.200 420.431 C 25.200 420.634,24.945 420.800,24.633 420.800 C 24.322 420.800,24.007 420.944,23.933 421.121 C 23.786 421.475,19.055 424.400,18.629 424.400 C 18.394 424.400,12.851 427.587,3.289 433.220 L 0.200 435.040 0.099 472.020 L -0.003 509.000 2.099 510.161 C 3.254 510.799,5.034 511.924,6.054 512.661 C 7.073 513.397,8.028 514.000,8.175 514.000 C 8.322 514.000,10.368 515.114,12.721 516.475 C 15.074 517.836,18.345 519.656,19.988 520.519 C 21.632 521.382,23.162 522.327,23.388 522.619 C 23.615 522.910,25.960 524.314,28.600 525.739 C 34.426 528.884,39.658 531.844,40.200 532.302 C 40.776 532.788,47.842 536.875,50.200 538.086 C 51.300 538.650,53.550 539.929,55.200 540.927 C 58.781 543.093,67.490 548.089,71.400 550.221 C 72.940 551.061,75.031 552.345,76.048 553.074 C 77.064 553.803,78.019 554.400,78.169 554.400 C 78.319 554.400,80.368 555.514,82.721 556.876 C 85.074 558.238,88.170 559.962,89.600 560.708 C 91.030 561.454,92.560 562.395,93.000 562.801 C 93.440 563.206,95.060 564.199,96.600 565.007 C 100.062 566.822,109.328 572.094,109.600 572.403 C 110.057 572.923,118.420 577.600,118.889 577.599 C 119.170 577.599,120.930 576.734,122.800 575.678 C 127.834 572.836,128.179 572.628,128.430 572.290 C 128.556 572.119,130.665 574.301,133.116 577.138 C 144.492 590.305,166.922 612.000,169.159 612.000 C 169.415 612.000,169.728 612.269,169.855 612.598 C 170.072 613.165,178.483 619.600,179.007 619.600 C 179.361 619.600,182.843 621.999,183.818 622.915 C 184.800 623.837,193.139 628.567,198.331 631.146 C 200.383 632.166,202.903 633.434,203.931 633.965 C 222.498 643.547,250.077 645.017,265.200 637.230 C 271.721 633.873,272.605 633.390,272.729 633.114 C 272.861 632.820,279.730 628.800,280.100 628.800 C 280.213 628.800,282.801 627.333,285.853 625.540 C 299.217 617.687,300.754 616.800,301.000 616.800 C 301.430 616.800,306.989 613.441,307.139 613.089 C 307.216 612.910,308.139 612.349,309.191 611.842 C 310.242 611.334,313.164 609.722,315.683 608.260 C 318.202 606.797,320.474 605.600,320.731 605.600 C 320.989 605.600,321.200 605.440,321.200 605.243 C 321.200 605.047,321.650 604.774,322.200 604.636 C 322.750 604.498,323.200 604.208,323.200 603.992 C 323.200 603.777,323.442 603.600,323.738 603.600 C 324.034 603.600,324.750 603.195,325.331 602.700 C 325.911 602.205,327.424 601.261,328.693 600.602 C 332.095 598.836,341.098 593.690,343.400 592.196 C 344.500 591.482,346.840 590.134,348.600 589.200 C 355.847 585.354,364.669 579.956,369.988 576.114 C 375.962 571.799,384.798 559.808,388.421 551.100 C 389.131 549.395,389.866 548.000,390.055 548.000 C 390.245 548.000,390.400 547.728,390.400 547.396 C 390.400 547.063,390.749 546.028,391.176 545.096 C 399.574 526.747,402.307 478.704,397.779 429.000 C 396.265 412.384,391.633 386.166,389.970 384.800 C 389.836 384.690,389.341 383.160,388.870 381.400 C 386.992 374.392,382.279 361.397,379.875 356.600 C 379.323 355.500,378.159 352.890,377.287 350.800 C 375.282 345.994,370.385 335.976,369.687 335.251 C 369.396 334.949,368.353 333.097,367.368 331.137 C 365.310 327.038,362.150 321.648,358.174 315.453 C 356.649 313.075,354.521 309.751,353.446 308.065 C 352.371 306.379,351.017 304.513,350.437 303.918 C 349.858 303.323,348.937 302.095,348.392 301.191 C 339.995 287.264,312.059 258.971,301.000 253.193 C 300.120 252.734,298.680 251.832,297.800 251.189 C 293.850 248.305,285.143 243.953,279.000 241.794 C 277.240 241.175,275.710 240.562,275.600 240.431 C 274.840 239.527,264.804 237.023,257.910 236.016 C 246.452 234.342,230.777 234.783,221.821 237.030 L 220.800 237.287 220.794 154.743 C 220.791 109.345,220.656 72.002,220.494 71.760 C 220.332 71.518,219.480 70.843,218.600 70.261 C 217.720 69.678,216.307 68.737,215.460 68.170 C 214.613 67.602,212.723 66.525,211.260 65.776 C 209.797 65.027,206.800 63.344,204.600 62.036 C 202.400 60.729,198.117 58.251,195.083 56.530 C 192.048 54.808,187.548 52.217,185.083 50.770 C 175.100 44.914,172.864 43.635,169.800 42.031 C 168.040 41.110,166.415 40.117,166.190 39.824 C 165.964 39.531,164.164 38.437,162.190 37.391 C 160.215 36.346,156.980 34.549,155.000 33.397 C 153.020 32.245,150.725 30.989,149.900 30.606 C 149.075 30.223,148.400 29.749,148.400 29.554 C 148.400 29.359,148.229 29.200,148.020 29.200 C 147.811 29.200,146.866 28.685,145.920 28.055 C 144.974 27.425,142.490 26.007,140.400 24.903 C 138.310 23.800,135.250 22.076,133.600 21.074 C 130.958 19.469,128.496 18.047,117.200 11.603 C 115.770 10.788,111.990 8.586,108.800 6.712 C 97.458 0.046,96.541 -0.292,94.008 1.251 M101.501 4.861 C 103.865 6.215,106.250 7.632,106.800 8.011 C 107.350 8.390,110.230 10.048,113.200 11.696 C 116.170 13.344,120.850 16.036,123.600 17.677 C 126.350 19.319,130.670 21.804,133.200 23.199 C 135.730 24.595,138.970 26.452,140.400 27.326 C 141.830 28.200,146.150 30.707,150.000 32.897 C 153.850 35.087,158.260 37.642,159.800 38.575 C 161.340 39.508,164.940 41.589,167.800 43.200 C 170.660 44.811,174.530 47.057,176.400 48.191 C 178.270 49.325,181.386 51.111,183.324 52.160 C 185.262 53.209,189.492 55.642,192.724 57.565 C 195.956 59.489,200.670 62.201,203.200 63.593 C 205.730 64.985,208.700 66.693,209.800 67.389 C 210.900 68.086,213.015 69.333,214.500 70.162 C 215.985 70.991,217.200 71.821,217.200 72.008 C 217.200 72.194,213.465 74.493,208.900 77.116 C 193.671 85.866,191.835 86.924,185.600 90.549 C 182.190 92.531,176.970 95.528,174.000 97.210 C 168.852 100.124,155.079 108.067,150.400 110.820 C 149.190 111.531,144.240 114.401,139.400 117.195 C 134.560 119.990,129.190 123.115,127.467 124.139 C 123.668 126.396,124.803 126.533,119.052 123.123 C 114.253 120.277,106.171 115.616,92.200 107.636 C 88.240 105.375,83.920 102.838,82.600 102.000 C 81.280 101.161,78.490 99.538,76.400 98.393 C 74.310 97.248,69.450 94.469,65.600 92.218 C 61.750 89.967,56.710 87.050,54.400 85.736 C 39.073 77.013,30.182 71.824,30.067 71.535 C 29.993 71.351,29.788 71.200,29.611 71.200 C 29.249 71.200,18.214 64.961,11.673 61.058 C 9.323 59.656,6.603 58.079,5.629 57.554 C 3.136 56.210,3.203 55.858,6.277 54.165 C 7.775 53.341,12.600 50.567,17.000 48.002 C 21.400 45.436,27.070 42.158,29.600 40.716 C 42.198 33.536,49.132 29.544,50.400 28.739 C 51.729 27.896,59.026 23.677,72.800 15.789 C 76.210 13.837,82.780 10.025,87.400 7.320 C 97.237 1.560,96.085 1.761,101.501 4.861 M15.600 65.070 C 33.177 75.085,37.121 77.358,38.000 77.974 C 38.550 78.360,41.520 80.081,44.600 81.799 C 47.680 83.517,52.000 86.007,54.200 87.332 C 56.400 88.657,60.270 90.898,62.800 92.311 C 65.330 93.725,70.550 96.724,74.400 98.978 C 78.250 101.231,83.380 104.206,85.800 105.590 C 99.615 113.490,106.511 117.468,109.000 118.976 C 110.540 119.909,114.140 121.981,117.000 123.582 C 119.860 125.182,122.515 126.769,122.900 127.108 C 123.562 127.691,123.600 132.191,123.600 210.995 C 123.600 256.795,123.684 294.351,123.786 294.453 C 123.889 294.556,125.916 294.249,128.290 293.771 C 175.346 284.300,221.341 309.832,257.446 365.467 C 259.135 368.070,260.763 370.560,261.063 371.000 C 276.806 394.082,291.748 429.725,296.957 456.619 C 302.207 483.726,304.752 534.428,302.197 561.000 C 296.347 621.833,267.347 649.580,221.733 637.989 C 190.287 629.999,152.638 600.700,122.641 560.877 C 118.205 554.987,118.246 554.942,118.000 565.919 L 117.800 574.829 116.000 573.686 C 115.009 573.058,111.049 570.780,107.200 568.623 C 103.350 566.466,100.020 564.560,99.800 564.387 C 99.398 564.070,84.309 555.304,78.896 552.243 C 77.299 551.339,72.259 548.430,67.696 545.777 C 63.133 543.125,56.790 539.459,53.600 537.632 C 44.882 532.638,30.871 524.561,21.000 518.837 C 11.602 513.387,7.518 511.029,4.000 509.018 L 1.800 507.761 1.698 472.680 C 1.623 447.155,1.717 437.600,2.040 437.600 C 2.285 437.600,4.401 438.742,6.742 440.137 C 9.084 441.532,12.260 443.364,13.800 444.208 C 15.340 445.052,19.913 447.699,23.962 450.090 C 28.011 452.481,31.566 454.345,31.862 454.232 C 32.809 453.868,32.647 145.668,31.700 145.312 C 31.315 145.167,29.470 144.126,27.600 142.998 C 25.730 141.870,21.860 139.622,19.000 138.003 C 16.140 136.384,11.235 133.546,8.100 131.697 L 2.400 128.335 2.400 93.234 C 2.400 73.929,2.502 58.032,2.626 57.907 C 2.751 57.783,4.776 58.805,7.126 60.179 C 9.477 61.553,13.290 63.754,15.600 65.070 M125.400 365.157 L 123.800 365.400 123.699 425.316 L 123.597 485.232 125.585 487.916 C 129.496 493.197,129.989 493.823,131.638 495.600 C 132.557 496.590,134.248 498.570,135.395 500.000 C 156.658 526.502,184.671 534.198,198.565 517.354 C 212.752 500.154,213.010 443.858,199.029 416.000 C 193.093 404.172,185.385 393.422,176.921 385.165 C 160.729 369.369,142.995 362.482,125.400 365.157 M30.800 436.000 C 30.800 444.800,30.705 452.000,30.589 452.000 C 30.250 452.000,20.300 446.375,14.166 442.717 C 11.068 440.868,7.335 438.736,5.871 437.978 C 2.436 436.199,2.406 435.997,5.340 434.412 C 6.693 433.681,10.770 431.327,14.400 429.180 C 22.303 424.507,30.085 420.087,30.500 420.037 C 30.665 420.016,30.800 427.200,30.800 436.000 M206.352 443.117 C 208.483 458.072,208.499 479.883,206.390 493.919 C 203.230 514.956,194.001 525.312,178.400 525.332 C 166.616 525.346,154.768 518.602,140.355 503.678 C 134.451 497.564,125.118 486.120,125.294 485.209 C 125.407 484.620,130.482 481.497,141.600 475.176 C 150.787 469.953,152.217 469.128,159.057 465.098 C 162.609 463.006,166.659 460.716,168.057 460.009 C 169.456 459.302,170.870 458.499,171.200 458.225 C 171.530 457.950,174.410 456.231,177.600 454.405 C 180.790 452.579,185.607 449.754,188.304 448.128 C 191.001 446.502,193.521 445.059,193.904 444.921 C 194.287 444.783,196.220 443.730,198.200 442.580 C 206.036 438.031,205.624 438.004,206.352 443.117 " stroke="none" fill="#0d3951" fill-rule="evenodd"></path><path id="path2" d="M90.900 5.242 C 89.745 5.915,88.800 6.558,88.800 6.671 C 88.800 6.893,92.357 4.915,92.980 4.347 C 93.658 3.728,93.042 3.993,90.900 5.242 M102.000 5.379 C 102.000 5.489,102.540 5.859,103.200 6.200 C 103.860 6.541,104.400 6.731,104.400 6.621 C 104.400 6.511,103.860 6.141,103.200 5.800 C 102.540 5.459,102.000 5.269,102.000 5.379 M71.100 16.629 C 69.605 17.440,69.696 17.778,71.200 17.000 C 71.860 16.659,72.400 16.294,72.400 16.190 C 72.400 15.932,72.357 15.947,71.100 16.629 M136.200 25.081 C 136.420 25.308,137.500 25.997,138.600 26.613 C 139.700 27.228,140.420 27.546,140.200 27.319 C 139.980 27.092,138.900 26.403,137.800 25.787 C 136.700 25.172,135.980 24.854,136.200 25.081 M37.900 35.829 C 36.405 36.640,36.496 36.978,38.000 36.200 C 38.660 35.859,39.200 35.494,39.200 35.390 C 39.200 35.132,39.157 35.147,37.900 35.829 M154.000 35.379 C 154.000 35.489,154.540 35.859,155.200 36.200 C 155.860 36.541,156.400 36.731,156.400 36.621 C 156.400 36.511,155.860 36.141,155.200 35.800 C 154.540 35.459,154.000 35.269,154.000 35.379 M20.900 45.642 C 19.745 46.315,18.800 46.958,18.800 47.071 C 18.800 47.293,22.357 45.315,22.980 44.747 C 23.658 44.128,23.042 44.393,20.900 45.642 M16.400 63.779 C 16.400 63.889,16.940 64.259,17.600 64.600 C 18.260 64.941,18.800 65.131,18.800 65.021 C 18.800 64.911,18.260 64.541,17.600 64.200 C 16.940 63.859,16.400 63.669,16.400 63.779 M206.200 65.481 C 206.420 65.708,207.500 66.397,208.600 67.013 C 209.700 67.628,210.420 67.946,210.200 67.719 C 209.980 67.492,208.900 66.803,207.800 66.187 C 206.700 65.572,205.980 65.254,206.200 65.481 M31.600 72.579 C 31.600 72.689,32.140 73.059,32.800 73.400 C 33.460 73.741,34.000 73.931,34.000 73.821 C 34.000 73.711,33.460 73.341,32.800 73.000 C 32.140 72.659,31.600 72.469,31.600 72.579 M36.000 76.979 C 36.000 77.089,36.540 77.459,37.200 77.800 C 37.860 78.141,38.400 78.331,38.400 78.221 C 38.400 78.111,37.860 77.741,37.200 77.400 C 36.540 77.059,36.000 76.869,36.000 76.979 M197.700 83.242 C 196.545 83.915,195.600 84.558,195.600 84.671 C 195.600 84.893,199.157 82.915,199.780 82.347 C 200.458 81.728,199.842 81.993,197.700 83.242 M51.200 85.779 C 51.200 85.889,51.740 86.259,52.400 86.600 C 53.060 86.941,53.600 87.131,53.600 87.021 C 53.600 86.911,53.060 86.541,52.400 86.200 C 51.740 85.859,51.200 85.669,51.200 85.779 M68.400 93.779 C 68.400 93.889,68.940 94.259,69.600 94.600 C 70.260 94.941,70.800 95.131,70.800 95.021 C 70.800 94.911,70.260 94.541,69.600 94.200 C 68.940 93.859,68.400 93.669,68.400 93.779 M69.200 96.179 C 69.200 96.289,69.740 96.659,70.400 97.000 C 71.060 97.341,71.600 97.531,71.600 97.421 C 71.600 97.311,71.060 96.941,70.400 96.600 C 69.740 96.259,69.200 96.069,69.200 96.179 M144.700 113.829 C 143.205 114.640,143.296 114.978,144.800 114.200 C 145.460 113.859,146.000 113.494,146.000 113.390 C 146.000 113.132,145.957 113.147,144.700 113.829 M103.200 115.779 C 103.200 115.889,103.740 116.259,104.400 116.600 C 105.060 116.941,105.600 117.131,105.600 117.021 C 105.600 116.911,105.060 116.541,104.400 116.200 C 103.740 115.859,103.200 115.669,103.200 115.779 M117.800 122.281 C 118.020 122.508,119.100 123.197,120.200 123.813 C 121.300 124.428,122.020 124.746,121.800 124.519 C 121.580 124.292,120.500 123.603,119.400 122.987 C 118.300 122.372,117.580 122.054,117.800 122.281 M128.700 123.029 C 127.205 123.840,127.296 124.178,128.800 123.400 C 129.460 123.059,130.000 122.694,130.000 122.590 C 130.000 122.332,129.957 122.347,128.700 123.029 M122.976 125.378 C 123.866 126.090,124.643 126.178,124.997 125.605 C 125.135 125.382,124.983 125.308,124.652 125.435 C 124.328 125.560,123.643 125.458,123.131 125.209 C 122.243 124.777,122.236 124.785,122.976 125.378 M123.297 210.876 C 123.244 256.788,123.335 294.436,123.500 294.538 C 123.771 294.706,123.770 238.078,123.497 157.600 C 123.441 140.990,123.351 164.964,123.297 210.876 M28.400 143.335 C 28.400 143.606,31.274 145.259,31.446 145.087 C 31.526 145.008,30.873 144.539,29.996 144.046 C 29.118 143.552,28.400 143.233,28.400 143.335 M178.570 297.027 C 180.093 297.559,181.408 297.926,181.492 297.841 C 181.677 297.657,176.821 295.988,176.222 296.030 C 175.990 296.046,177.046 296.495,178.570 297.027 M226.200 327.600 C 228.612 330.020,230.676 332.000,230.786 332.000 C 230.896 332.000,229.012 330.020,226.600 327.600 C 224.188 325.180,222.124 323.200,222.014 323.200 C 221.904 323.200,223.788 325.180,226.200 327.600 M232.400 333.800 C 233.146 334.570,233.847 335.200,233.957 335.200 C 234.067 335.200,233.546 334.570,232.800 333.800 C 232.054 333.030,231.353 332.400,231.243 332.400 C 231.133 332.400,231.654 333.030,232.400 333.800 M234.800 336.525 C 234.800 336.594,235.385 337.179,236.100 337.825 L 237.400 339.000 236.225 337.700 C 235.130 336.488,234.800 336.216,234.800 336.525 M254.000 360.800 C 254.470 361.460,254.944 362.000,255.054 362.000 C 255.164 362.000,254.870 361.460,254.400 360.800 C 253.930 360.140,253.456 359.600,253.346 359.600 C 253.236 359.600,253.530 360.140,254.000 360.800 M127.800 364.636 C 129.424 364.895,141.758 365.013,140.600 364.758 C 139.940 364.613,136.610 364.498,133.200 364.502 C 129.790 364.506,127.360 364.566,127.800 364.636 M124.900 365.076 C 125.285 365.176,125.915 365.176,126.300 365.076 C 126.685 364.975,126.370 364.893,125.600 364.893 C 124.830 364.893,124.515 364.975,124.900 365.076 M123.385 365.700 C 123.280 365.975,123.241 393.020,123.297 425.800 L 123.400 485.400 123.600 425.300 C 123.710 392.245,123.749 365.200,123.687 365.200 C 123.626 365.200,123.489 365.425,123.385 365.700 M162.800 373.724 C 162.800 373.817,163.565 374.398,164.500 375.015 C 165.435 375.632,165.989 375.880,165.731 375.568 C 165.234 374.967,162.800 373.436,162.800 373.724 M272.600 391.200 C 273.157 392.300,273.703 393.200,273.813 393.200 C 273.923 393.200,273.557 392.300,273.000 391.200 C 272.443 390.100,271.897 389.200,271.787 389.200 C 271.677 389.200,272.043 390.100,272.600 391.200 M195.800 410.000 C 196.141 410.660,196.511 411.200,196.621 411.200 C 196.731 411.200,196.541 410.660,196.200 410.000 C 195.859 409.340,195.489 408.800,195.379 408.800 C 195.269 408.800,195.459 409.340,195.800 410.000 M282.428 411.400 C 282.428 411.620,282.686 412.250,283.000 412.800 C 283.314 413.350,283.572 413.620,283.572 413.400 C 283.572 413.180,283.314 412.550,283.000 412.000 C 282.686 411.450,282.428 411.180,282.428 411.400 M197.478 412.995 C 197.844 413.762,198.214 414.319,198.301 414.232 C 198.484 414.049,197.270 411.600,196.996 411.600 C 196.895 411.600,197.112 412.228,197.478 412.995 M17.900 427.029 C 16.405 427.840,16.496 428.178,18.000 427.400 C 18.660 427.059,19.200 426.694,19.200 426.590 C 19.200 426.332,19.157 426.347,17.900 427.029 M206.009 435.833 C 206.036 436.850,207.939 446.074,207.967 445.320 C 208.003 444.351,206.432 435.900,206.166 435.633 C 206.075 435.542,206.004 435.632,206.009 435.833 M1.600 472.551 C 1.600 505.369,1.643 507.534,2.300 508.032 C 2.896 508.482,2.925 508.478,2.500 508.001 C 1.985 507.424,1.714 438.000,2.226 438.000 C 2.351 438.000,2.846 438.190,3.326 438.422 C 4.170 438.830,4.174 438.823,3.424 438.222 C 1.530 436.705,1.600 435.385,1.600 472.551 M292.856 440.400 C 292.856 440.730,293.011 441.360,293.200 441.800 C 293.417 442.304,293.544 442.378,293.544 442.000 C 293.544 441.670,293.389 441.040,293.200 440.600 C 292.983 440.096,292.856 440.022,292.856 440.400 M199.896 441.558 C 197.460 442.987,196.919 443.544,199.000 442.480 C 200.545 441.691,202.410 440.418,202.000 440.433 C 201.890 440.437,200.943 440.943,199.896 441.558 M206.093 443.200 C 206.093 443.970,206.175 444.285,206.276 443.900 C 206.376 443.515,206.376 442.885,206.276 442.500 C 206.175 442.115,206.093 442.430,206.093 443.200 M190.400 446.845 C 188.530 447.954,186.820 449.057,186.600 449.295 C 186.380 449.533,186.830 449.363,187.600 448.918 C 188.370 448.472,190.170 447.435,191.600 446.613 C 194.453 444.973,194.709 444.793,194.167 444.814 C 193.965 444.821,192.270 445.735,190.400 446.845 M206.493 446.000 C 206.493 446.770,206.575 447.085,206.676 446.700 C 206.776 446.315,206.776 445.685,206.676 445.300 C 206.575 444.915,206.493 445.230,206.493 446.000 M18.800 445.379 C 18.800 445.489,19.340 445.859,20.000 446.200 C 20.660 446.541,21.200 446.731,21.200 446.621 C 21.200 446.511,20.660 446.141,20.000 445.800 C 19.340 445.459,18.800 445.269,18.800 445.379 M17.600 446.579 C 17.600 446.689,18.140 447.059,18.800 447.400 C 19.460 447.741,20.000 447.931,20.000 447.821 C 20.000 447.711,19.460 447.341,18.800 447.000 C 18.140 446.659,17.600 446.469,17.600 446.579 M208.093 448.000 C 208.093 448.770,208.175 449.085,208.276 448.700 C 208.376 448.315,208.376 447.685,208.276 447.300 C 208.175 446.915,208.093 447.230,208.093 448.000 M206.893 449.200 C 206.893 449.970,206.975 450.285,207.076 449.900 C 207.176 449.515,207.176 448.885,207.076 448.500 C 206.975 448.115,206.893 448.430,206.893 449.200 M208.493 451.600 C 208.493 452.370,208.575 452.685,208.676 452.300 C 208.776 451.915,208.776 451.285,208.676 450.900 C 208.575 450.515,208.493 450.830,208.493 451.600 M179.131 453.512 C 176.563 454.993,174.313 456.368,174.131 456.568 C 173.949 456.767,174.880 456.332,176.200 455.601 C 181.746 452.529,184.619 450.741,183.900 450.810 C 183.845 450.815,181.699 452.031,179.131 453.512 M207.309 453.600 C 207.309 454.590,207.387 454.995,207.482 454.500 C 207.578 454.005,207.578 453.195,207.482 452.700 C 207.387 452.205,207.309 452.610,207.309 453.600 M207.773 468.600 C 207.773 474.100,207.830 476.405,207.899 473.723 C 207.968 471.041,207.968 466.541,207.899 463.723 C 207.830 460.905,207.774 463.100,207.773 468.600 M160.333 464.310 C 156.667 466.449,153.517 468.368,153.333 468.572 C 153.150 468.777,153.720 468.531,154.600 468.025 C 155.480 467.519,158.360 465.878,161.000 464.379 C 165.465 461.842,167.678 460.430,167.200 460.422 C 167.090 460.421,164.000 462.170,160.333 464.310 M141.989 474.851 C 138.805 476.640,135.930 478.363,135.600 478.681 C 135.270 478.999,136.890 478.192,139.200 476.887 C 141.510 475.583,144.435 473.932,145.700 473.219 C 147.669 472.110,148.358 471.600,147.889 471.600 C 147.827 471.600,145.172 473.063,141.989 474.851 M130.304 481.742 C 127.200 483.523,126.796 484.071,129.800 482.426 C 131.987 481.229,133.241 480.381,132.780 480.412 C 132.681 480.419,131.567 481.017,130.304 481.742 M207.309 483.600 C 207.309 484.590,207.387 484.995,207.482 484.500 C 207.578 484.005,207.578 483.195,207.482 482.700 C 207.387 482.205,207.309 482.610,207.309 483.600 M126.089 484.223 C 124.907 485.050,124.966 485.567,126.429 487.215 L 127.658 488.600 126.629 487.162 C 125.370 485.403,125.355 485.068,126.500 484.270 C 126.995 483.924,127.305 483.633,127.189 483.621 C 127.073 483.609,126.578 483.880,126.089 484.223 M208.501 485.800 C 208.505 486.680,208.587 486.993,208.683 486.495 C 208.779 485.998,208.775 485.278,208.675 484.895 C 208.575 484.513,208.496 484.920,208.501 485.800 M206.893 488.400 C 206.893 489.170,206.975 489.485,207.076 489.100 C 207.176 488.715,207.176 488.085,207.076 487.700 C 206.975 487.315,206.893 487.630,206.893 488.400 M129.385 491.140 C 130.464 492.512,131.954 494.302,132.697 495.118 C 133.439 495.933,132.766 494.939,131.200 492.909 C 129.634 490.879,128.144 489.089,127.889 488.931 C 127.634 488.774,128.307 489.767,129.385 491.140 M208.093 490.000 C 208.093 490.770,208.175 491.085,208.276 490.700 C 208.376 490.315,208.376 489.685,208.276 489.300 C 208.175 488.915,208.093 489.230,208.093 490.000 M301.309 491.200 C 301.309 492.190,301.387 492.595,301.482 492.100 C 301.578 491.605,301.578 490.795,301.482 490.300 C 301.387 489.805,301.309 490.210,301.309 491.200 M205.269 498.301 C 204.977 499.896,204.321 502.551,203.812 504.201 C 203.303 505.850,202.962 507.200,203.053 507.200 C 203.590 507.200,206.112 497.593,205.924 496.267 C 205.856 495.790,205.561 496.705,205.269 498.301 M301.720 497.600 C 301.720 498.810,301.795 499.305,301.887 498.700 C 301.978 498.095,301.978 497.105,301.887 496.500 C 301.795 495.895,301.720 496.390,301.720 497.600 M132.400 496.925 C 132.400 496.994,132.985 497.579,133.700 498.225 L 135.000 499.400 133.825 498.100 C 132.730 496.888,132.400 496.616,132.400 496.925 M134.000 496.925 C 134.000 496.994,134.585 497.579,135.300 498.225 L 136.600 499.400 135.425 498.100 C 134.330 496.888,134.000 496.616,134.000 496.925 M142.000 505.400 C 144.743 508.150,147.078 510.400,147.188 510.400 C 147.298 510.400,145.143 508.150,142.400 505.400 C 139.657 502.650,137.322 500.400,137.212 500.400 C 137.102 500.400,139.257 502.650,142.000 505.400 M302.142 505.000 C 302.141 506.980,302.208 507.840,302.292 506.912 C 302.376 505.984,302.377 504.364,302.295 503.312 C 302.212 502.260,302.143 503.020,302.142 505.000 M141.200 506.600 C 142.395 507.810,143.463 508.800,143.573 508.800 C 143.683 508.800,142.795 507.810,141.600 506.600 C 140.405 505.390,139.337 504.400,139.227 504.400 C 139.117 504.400,140.005 505.390,141.200 506.600 M148.000 510.936 C 148.000 511.040,148.945 511.899,150.100 512.844 C 151.402 513.910,151.820 514.137,151.200 513.442 C 150.180 512.299,148.000 510.592,148.000 510.936 M302.553 515.800 C 302.553 518.440,302.618 519.468,302.697 518.084 C 302.775 516.701,302.774 514.541,302.695 513.284 C 302.616 512.028,302.552 513.160,302.553 515.800 M152.762 514.951 C 153.649 516.025,159.480 519.754,163.091 521.557 C 168.080 524.047,167.617 523.504,162.450 520.803 C 159.947 519.495,156.617 517.490,155.050 516.348 C 153.482 515.205,152.453 514.577,152.762 514.951 M195.748 518.245 C 193.901 520.151,193.315 520.944,194.085 520.494 C 195.383 519.737,197.671 517.361,198.381 516.035 C 198.988 514.901,198.984 514.905,195.748 518.245 M154.894 518.090 C 156.082 519.100,158.400 520.547,158.400 520.279 C 158.400 520.188,157.365 519.449,156.100 518.637 C 154.835 517.825,154.292 517.579,154.894 518.090 M29.600 523.779 C 29.600 523.889,30.140 524.259,30.800 524.600 C 31.460 524.941,32.000 525.131,32.000 525.021 C 32.000 524.911,31.460 524.541,30.800 524.200 C 30.140 523.859,29.600 523.669,29.600 523.779 M302.977 535.800 C 302.977 542.400,303.032 545.156,303.099 541.925 C 303.166 538.693,303.166 533.293,303.099 529.925 C 303.032 526.556,302.977 529.200,302.977 535.800 M177.300 525.487 C 177.905 525.578,178.895 525.578,179.500 525.487 C 180.105 525.395,179.610 525.320,178.400 525.320 C 177.190 525.320,176.695 525.395,177.300 525.487 M48.600 534.681 C 48.820 534.908,49.900 535.597,51.000 536.213 C 52.100 536.828,52.820 537.146,52.600 536.919 C 52.380 536.692,51.300 536.003,50.200 535.387 C 49.100 534.772,48.380 534.454,48.600 534.681 M302.540 553.200 C 302.540 555.070,302.609 555.835,302.693 554.900 C 302.777 553.965,302.777 552.435,302.693 551.500 C 302.609 550.565,302.540 551.330,302.540 553.200 M118.203 556.795 C 118.062 557.023,118.224 557.089,118.584 556.951 C 118.929 556.819,119.523 556.956,119.905 557.255 C 120.534 557.748,120.548 557.733,120.051 557.100 C 119.444 556.327,118.581 556.184,118.203 556.795 M302.114 559.400 C 302.117 560.500,302.195 560.903,302.287 560.295 C 302.379 559.686,302.377 558.786,302.282 558.295 C 302.187 557.803,302.111 558.300,302.114 559.400 M301.701 563.800 C 301.705 564.680,301.787 564.993,301.883 564.495 C 301.979 563.998,301.975 563.278,301.875 562.895 C 301.775 562.513,301.696 562.920,301.701 563.800 M99.800 564.281 C 100.020 564.508,101.100 565.197,102.200 565.813 C 103.300 566.428,104.020 566.746,103.800 566.519 C 103.580 566.292,102.500 565.603,101.400 564.987 C 100.300 564.372,99.580 564.054,99.800 564.281 M144.400 586.600 C 145.595 587.810,146.663 588.800,146.773 588.800 C 146.883 588.800,145.995 587.810,144.800 586.600 C 143.605 585.390,142.537 584.400,142.427 584.400 C 142.317 584.400,143.205 585.390,144.400 586.600 M155.183 597.300 C 156.164 598.345,157.019 599.200,157.083 599.200 C 157.384 599.200,157.066 598.841,155.300 597.183 L 153.400 595.400 155.183 597.300 M176.800 615.362 C 176.800 615.472,177.610 616.119,178.600 616.800 C 179.590 617.481,180.400 617.948,180.400 617.838 C 180.400 617.728,179.590 617.081,178.600 616.400 C 177.610 615.719,176.800 615.252,176.800 615.362 M283.375 618.668 C 282.759 619.476,282.459 620.011,282.709 619.856 C 283.221 619.540,284.953 617.200,284.675 617.200 C 284.576 617.200,283.991 617.861,283.375 618.668 M276.585 626.500 L 274.600 628.600 276.700 626.615 C 278.651 624.771,278.983 624.400,278.685 624.400 C 278.622 624.400,277.677 625.345,276.585 626.500 M214.244 635.782 C 214.928 636.098,216.008 636.459,216.644 636.584 C 217.633 636.779,217.598 636.733,216.400 636.263 C 214.240 635.416,212.713 635.076,214.244 635.782 M262.000 636.200 C 261.450 636.514,261.180 636.772,261.400 636.772 C 261.620 636.772,262.250 636.514,262.800 636.200 C 263.350 635.886,263.620 635.628,263.400 635.628 C 263.180 635.628,262.550 635.886,262.000 636.200 " stroke="none" fill="#13627c" fill-rule="evenodd"></path><path id="path3" d="M94.500 3.426 C 93.565 3.987,92.800 4.533,92.800 4.640 C 92.800 4.746,93.625 4.350,94.634 3.759 C 96.414 2.716,96.508 2.703,97.834 3.336 C 99.505 4.133,99.661 3.859,98.020 3.010 C 96.502 2.225,96.505 2.225,94.500 3.426 M80.696 11.350 C 78.775 12.531,78.238 13.089,79.800 12.281 C 81.054 11.633,82.745 10.426,82.400 10.425 C 82.290 10.425,81.523 10.841,80.696 11.350 M111.200 10.979 C 111.200 11.089,111.740 11.459,112.400 11.800 C 113.060 12.141,113.600 12.331,113.600 12.221 C 113.600 12.111,113.060 11.741,112.400 11.400 C 111.740 11.059,111.200 10.869,111.200 10.979 M114.000 12.579 C 114.000 12.689,114.540 13.059,115.200 13.400 C 115.860 13.741,116.400 13.931,116.400 13.821 C 116.400 13.711,115.860 13.341,115.200 13.000 C 114.540 12.659,114.000 12.469,114.000 12.579 M77.100 13.429 C 75.605 14.240,75.696 14.578,77.200 13.800 C 77.860 13.459,78.400 13.094,78.400 12.990 C 78.400 12.732,78.357 12.747,77.100 13.429 M60.500 23.029 C 59.125 23.809,58.000 24.539,58.000 24.653 C 58.000 24.874,62.348 22.506,62.980 21.940 C 63.684 21.310,63.013 21.605,60.500 23.029 M130.200 21.881 C 130.420 22.108,131.500 22.797,132.600 23.413 C 133.700 24.028,134.420 24.346,134.200 24.119 C 133.980 23.892,132.900 23.203,131.800 22.587 C 130.700 21.972,129.980 21.654,130.200 21.881 M45.900 31.429 C 44.405 32.240,44.496 32.578,46.000 31.800 C 46.660 31.459,47.200 31.094,47.200 30.990 C 47.200 30.732,47.157 30.747,45.900 31.429 M146.200 31.081 C 146.420 31.308,147.500 31.997,148.600 32.613 C 149.700 33.228,150.420 33.546,150.200 33.319 C 149.980 33.092,148.900 32.403,147.800 31.787 C 146.700 31.172,145.980 30.854,146.200 31.081 M25.900 43.021 C 24.195 44.014,22.800 44.926,22.800 45.046 C 22.800 45.167,23.385 44.914,24.100 44.485 C 24.815 44.056,26.255 43.215,27.300 42.615 C 28.345 42.015,29.200 41.451,29.200 41.362 C 29.200 41.102,29.147 41.129,25.900 43.021 M166.800 42.979 C 166.800 43.089,167.340 43.459,168.000 43.800 C 168.660 44.141,169.200 44.331,169.200 44.221 C 169.200 44.111,168.660 43.741,168.000 43.400 C 167.340 43.059,166.800 42.869,166.800 42.979 M9.726 52.316 C 7.926 53.360,6.306 54.375,6.126 54.571 C 5.732 55.002,5.759 54.988,9.900 52.619 C 11.715 51.580,13.200 50.656,13.200 50.565 C 13.200 50.304,13.170 50.319,9.726 52.316 M181.200 51.379 C 181.200 51.489,181.740 51.859,182.400 52.200 C 183.060 52.541,183.600 52.731,183.600 52.621 C 183.600 52.511,183.060 52.141,182.400 51.800 C 181.740 51.459,181.200 51.269,181.200 51.379 M184.000 52.979 C 184.000 53.089,184.540 53.459,185.200 53.800 C 185.860 54.141,186.400 54.331,186.400 54.221 C 186.400 54.111,185.860 53.741,185.200 53.400 C 184.540 53.059,184.000 52.869,184.000 52.979 M4.362 55.550 L 3.436 56.300 5.160 57.180 C 6.108 57.663,6.779 57.889,6.650 57.682 C 6.522 57.474,5.854 57.071,5.166 56.786 L 3.915 56.268 4.857 55.543 C 5.376 55.144,5.685 54.814,5.544 54.809 C 5.404 54.804,4.872 55.138,4.362 55.550 M2.494 93.300 C 2.546 112.715,2.636 122.930,2.694 116.000 C 2.969 83.032,2.972 58.000,2.700 58.000 C 2.535 58.000,2.442 73.885,2.494 93.300 M197.200 60.541 C 197.200 60.693,199.471 62.054,204.100 64.677 C 204.265 64.771,204.400 64.762,204.400 64.659 C 204.400 64.507,202.129 63.146,197.500 60.523 C 197.335 60.429,197.200 60.438,197.200 60.541 M9.400 61.881 C 9.620 62.108,10.700 62.797,11.800 63.413 C 12.900 64.028,13.620 64.346,13.400 64.119 C 13.180 63.892,12.100 63.203,11.000 62.587 C 9.900 61.972,9.180 61.654,9.400 61.881 M14.000 64.579 C 14.000 64.689,14.540 65.059,15.200 65.400 C 15.860 65.741,16.400 65.931,16.400 65.821 C 16.400 65.711,15.860 65.341,15.200 65.000 C 14.540 64.659,14.000 64.469,14.000 64.579 M18.800 64.914 C 19.522 65.600,24.000 68.141,24.000 67.864 C 24.000 67.757,22.695 66.921,21.100 66.006 C 19.505 65.092,18.470 64.600,18.800 64.914 M25.200 70.941 C 25.200 71.093,27.471 72.454,32.100 75.077 C 32.265 75.171,32.400 75.162,32.400 75.059 C 32.400 74.907,30.129 73.546,25.500 70.923 C 25.335 70.829,25.200 70.838,25.200 70.941 M209.700 76.042 C 208.545 76.715,207.600 77.358,207.600 77.471 C 207.600 77.693,211.157 75.715,211.780 75.147 C 212.458 74.528,211.842 74.793,209.700 76.042 M37.600 75.739 C 37.600 75.912,39.529 77.076,42.800 78.876 C 43.996 79.534,44.059 79.541,43.234 78.923 C 41.951 77.963,37.600 75.504,37.600 75.739 M205.900 78.229 C 204.405 79.040,204.496 79.378,206.000 78.600 C 206.660 78.259,207.200 77.894,207.200 77.790 C 207.200 77.532,207.157 77.547,205.900 78.229 M43.200 81.379 C 43.200 81.489,43.740 81.859,44.400 82.200 C 45.060 82.541,45.600 82.731,45.600 82.621 C 45.600 82.511,45.060 82.141,44.400 81.800 C 43.740 81.459,43.200 81.269,43.200 81.379 M46.200 83.090 C 46.420 83.300,47.320 83.876,48.200 84.370 C 49.080 84.865,49.440 84.970,49.000 84.604 C 48.106 83.861,45.572 82.491,46.200 83.090 M53.600 84.979 C 53.600 85.089,54.140 85.459,54.800 85.800 C 55.460 86.141,56.000 86.331,56.000 86.221 C 56.000 86.111,55.460 85.741,54.800 85.400 C 54.140 85.059,53.600 84.869,53.600 84.979 M190.526 87.116 C 188.726 88.160,187.106 89.175,186.926 89.371 C 186.532 89.802,186.559 89.788,190.700 87.419 C 192.515 86.380,194.000 85.456,194.000 85.365 C 194.000 85.104,193.970 85.119,190.526 87.116 M56.600 86.681 C 56.820 86.908,57.900 87.597,59.000 88.213 C 60.100 88.828,60.820 89.146,60.600 88.919 C 60.380 88.692,59.300 88.003,58.200 87.387 C 57.100 86.772,56.380 86.454,56.600 86.681 M60.201 91.202 C 60.469 91.636,62.800 92.934,62.800 92.650 C 62.800 92.556,62.159 92.101,61.376 91.639 C 60.593 91.177,60.064 90.980,60.201 91.202 M63.200 92.979 C 63.200 93.089,63.740 93.459,64.400 93.800 C 65.060 94.141,65.600 94.331,65.600 94.221 C 65.600 94.111,65.060 93.741,64.400 93.400 C 63.740 93.059,63.200 92.869,63.200 92.979 M174.700 96.229 C 173.205 97.040,173.296 97.378,174.800 96.600 C 175.460 96.259,176.000 95.894,176.000 95.790 C 176.000 95.532,175.957 95.547,174.700 96.229 M73.600 96.584 C 73.600 96.694,74.320 97.151,75.200 97.600 C 76.080 98.049,76.800 98.326,76.800 98.216 C 76.800 98.106,76.080 97.649,75.200 97.200 C 74.320 96.751,73.600 96.474,73.600 96.584 M171.900 97.829 C 170.405 98.640,170.496 98.978,172.000 98.200 C 172.660 97.859,173.200 97.494,173.200 97.390 C 173.200 97.132,173.157 97.147,171.900 97.829 M79.400 102.281 C 79.620 102.508,80.700 103.197,81.800 103.813 C 82.900 104.428,83.620 104.746,83.400 104.519 C 83.180 104.292,82.100 103.603,81.000 102.987 C 79.900 102.372,79.180 102.054,79.400 102.281 M88.366 105.077 C 89.649 106.037,94.000 108.496,94.000 108.261 C 94.000 108.088,92.071 106.924,88.800 105.124 C 87.604 104.466,87.541 104.459,88.366 105.077 M158.304 105.742 C 155.200 107.523,154.796 108.071,157.800 106.426 C 159.987 105.229,161.241 104.381,160.780 104.412 C 160.681 104.419,159.567 105.017,158.304 105.742 M84.000 104.979 C 84.000 105.089,84.540 105.459,85.200 105.800 C 85.860 106.141,86.400 106.331,86.400 106.221 C 86.400 106.111,85.860 105.741,85.200 105.400 C 84.540 105.059,84.000 104.869,84.000 104.979 M95.200 111.339 C 95.200 111.512,97.129 112.676,100.400 114.476 C 101.596 115.134,101.659 115.141,100.834 114.523 C 99.551 113.563,95.200 111.104,95.200 111.339 M105.600 114.950 C 105.600 115.068,106.905 115.916,108.500 116.835 C 110.095 117.754,111.985 118.857,112.700 119.286 C 113.415 119.714,114.000 119.969,114.000 119.850 C 114.000 119.732,112.695 118.884,111.100 117.965 C 109.505 117.046,107.615 115.943,106.900 115.514 C 106.185 115.086,105.600 114.831,105.600 114.950 M137.300 117.829 C 135.925 118.609,134.800 119.343,134.800 119.461 C 134.800 119.699,139.176 117.322,139.780 116.756 C 140.457 116.121,139.848 116.385,137.300 117.829 M116.000 123.379 C 116.000 123.489,116.540 123.859,117.200 124.200 C 117.860 124.541,118.400 124.731,118.400 124.621 C 118.400 124.511,117.860 124.141,117.200 123.800 C 116.540 123.459,116.000 123.269,116.000 123.379 M13.600 134.579 C 13.600 134.689,14.140 135.059,14.800 135.400 C 15.460 135.741,16.000 135.931,16.000 135.821 C 16.000 135.711,15.460 135.341,14.800 135.000 C 14.140 134.659,13.600 134.469,13.600 134.579 M16.400 136.139 C 16.400 136.241,17.255 136.821,18.300 137.428 C 19.345 138.035,20.650 138.794,21.200 139.114 L 22.200 139.695 21.301 138.947 C 20.249 138.074,16.400 135.868,16.400 136.139 M31.900 145.199 C 32.753 146.156,32.621 454.400,31.767 454.400 C 31.419 454.400,30.036 453.756,28.692 452.969 C 27.349 452.181,26.454 451.776,26.702 452.069 C 27.523 453.032,31.490 454.928,32.153 454.673 C 33.196 454.273,33.143 145.958,32.100 145.168 C 31.504 144.718,31.475 144.722,31.900 145.199 M142.711 292.293 C 143.651 292.378,145.091 292.377,145.911 292.291 C 146.730 292.205,145.960 292.136,144.200 292.137 C 142.440 292.139,141.770 292.209,142.711 292.293 M149.500 292.293 C 150.435 292.377,151.965 292.377,152.900 292.293 C 153.835 292.209,153.070 292.140,151.200 292.140 C 149.330 292.140,148.565 292.209,149.500 292.293 M137.300 292.676 C 137.685 292.776,138.315 292.776,138.700 292.676 C 139.085 292.575,138.770 292.493,138.000 292.493 C 137.230 292.493,136.915 292.575,137.300 292.676 M156.705 292.683 C 157.202 292.779,157.922 292.775,158.305 292.675 C 158.687 292.575,158.280 292.496,157.400 292.501 C 156.520 292.505,156.207 292.587,156.705 292.683 M133.700 293.076 C 134.085 293.176,134.715 293.176,135.100 293.076 C 135.485 292.975,135.170 292.893,134.400 292.893 C 133.630 292.893,133.315 292.975,133.700 293.076 M192.800 302.984 C 192.800 303.094,193.520 303.551,194.400 304.000 C 195.280 304.449,196.000 304.726,196.000 304.616 C 196.000 304.506,195.280 304.049,194.400 303.600 C 193.520 303.151,192.800 302.874,192.800 302.984 M208.400 312.465 C 209.278 313.365,216.800 319.247,216.800 319.033 C 216.800 318.817,211.677 314.641,209.400 313.001 C 208.520 312.368,208.070 312.126,208.400 312.465 M224.000 325.800 C 226.081 327.890,227.874 329.600,227.984 329.600 C 228.094 329.600,226.481 327.890,224.400 325.800 C 222.319 323.710,220.526 322.000,220.416 322.000 C 220.306 322.000,221.919 323.710,224.000 325.800 M232.418 334.173 C 237.090 339.382,237.999 340.346,237.992 340.083 C 237.988 339.927,236.323 338.078,234.292 335.973 C 232.261 333.869,231.418 333.059,232.418 334.173 M243.355 346.919 C 244.203 347.953,244.980 348.800,245.082 348.800 C 245.355 348.800,242.821 345.660,242.277 345.324 C 242.022 345.166,242.507 345.884,243.355 346.919 M247.027 351.500 C 248.067 352.875,248.994 354.000,249.086 354.000 C 249.334 354.000,247.845 352.007,246.397 350.400 C 245.703 349.630,245.986 350.125,247.027 351.500 M131.700 364.291 C 132.525 364.378,133.875 364.378,134.700 364.291 C 135.525 364.205,134.850 364.134,133.200 364.134 C 131.550 364.134,130.875 364.205,131.700 364.291 M148.970 367.027 C 150.493 367.559,151.808 367.926,151.892 367.841 C 152.077 367.657,147.221 365.988,146.622 366.030 C 146.390 366.046,147.446 366.495,148.970 367.027 M265.318 378.700 C 266.524 380.883,268.932 384.800,269.069 384.800 C 269.279 384.800,269.373 384.979,267.212 381.300 C 266.275 379.705,265.429 378.400,265.331 378.400 C 265.233 378.400,265.227 378.535,265.318 378.700 M177.400 385.600 C 180.033 388.240,182.277 390.400,182.387 390.400 C 182.497 390.400,180.433 388.240,177.800 385.600 C 175.167 382.960,172.923 380.800,172.813 380.800 C 172.703 380.800,174.767 382.960,177.400 385.600 M182.400 390.925 C 182.400 390.994,182.985 391.579,183.700 392.225 L 185.000 393.400 183.825 392.100 C 182.730 390.888,182.400 390.616,182.400 390.925 M274.042 394.200 C 274.042 394.420,275.193 396.850,276.600 399.600 C 278.007 402.350,279.158 404.420,279.158 404.200 C 279.158 403.980,278.007 401.550,276.600 398.800 C 275.193 396.050,274.042 393.980,274.042 394.200 M192.585 404.300 C 193.202 405.235,193.783 406.000,193.876 406.000 C 194.164 406.000,192.633 403.566,192.032 403.069 C 191.720 402.811,191.968 403.365,192.585 404.300 M284.117 416.100 C 284.229 416.375,284.907 418.086,285.624 419.903 C 286.341 421.720,286.997 423.136,287.082 423.051 C 287.277 422.857,284.388 415.600,284.115 415.600 C 284.005 415.600,284.006 415.825,284.117 416.100 M30.582 436.000 C 30.582 444.690,30.635 448.245,30.700 443.900 C 30.764 439.555,30.764 432.445,30.700 428.100 C 30.635 423.755,30.582 427.310,30.582 436.000 M20.300 425.829 C 18.805 426.640,18.896 426.978,20.400 426.200 C 21.060 425.859,21.600 425.494,21.600 425.390 C 21.600 425.132,21.557 425.147,20.300 425.829 M203.263 425.800 C 203.262 426.020,203.503 426.830,203.800 427.600 C 204.097 428.370,204.345 428.730,204.352 428.400 C 204.358 428.070,204.117 427.260,203.814 426.600 C 203.512 425.940,203.264 425.580,203.263 425.800 M204.456 429.600 C 204.456 429.930,204.611 430.560,204.800 431.000 C 205.017 431.504,205.144 431.578,205.144 431.200 C 205.144 430.870,204.989 430.240,204.800 429.800 C 204.583 429.296,204.456 429.222,204.456 429.600 M6.900 433.642 C 5.745 434.315,4.800 434.958,4.800 435.071 C 4.800 435.293,8.357 433.315,8.980 432.747 C 9.658 432.128,9.042 432.393,6.900 433.642 M4.000 436.529 C 4.000 436.642,5.897 437.823,8.215 439.153 C 10.533 440.483,12.333 441.415,12.215 441.224 C 12.097 441.033,10.965 440.296,9.700 439.587 C 8.435 438.878,6.635 437.854,5.700 437.311 C 4.765 436.768,4.000 436.416,4.000 436.529 M203.823 439.563 C 203.700 439.762,203.932 439.838,204.338 439.732 C 204.954 439.571,205.151 439.895,205.516 441.669 L 205.954 443.800 205.738 441.800 C 205.464 439.258,204.620 438.273,203.823 439.563 M11.600 443.379 C 11.600 443.489,12.140 443.859,12.800 444.200 C 13.460 444.541,14.000 444.731,14.000 444.621 C 14.000 444.511,13.460 444.141,12.800 443.800 C 12.140 443.459,11.600 443.269,11.600 443.379 M189.800 447.649 C 186.720 449.430,184.020 451.074,183.800 451.302 C 183.274 451.848,183.194 451.891,189.900 448.014 C 194.766 445.200,196.046 444.376,195.500 444.405 C 195.445 444.408,192.880 445.868,189.800 447.649 M294.468 447.200 C 294.488 448.239,295.118 449.946,295.132 449.000 C 295.138 448.560,294.989 447.840,294.800 447.400 C 294.589 446.910,294.461 446.832,294.468 447.200 M23.000 447.481 C 23.220 447.708,24.300 448.397,25.400 449.013 C 26.500 449.628,27.220 449.946,27.000 449.719 C 26.780 449.492,25.700 448.803,24.600 448.187 C 23.500 447.572,22.780 447.254,23.000 447.481 M207.314 457.000 C 207.317 458.100,207.395 458.503,207.487 457.895 C 207.579 457.286,207.577 456.386,207.482 455.895 C 207.387 455.403,207.311 455.900,207.314 457.000 M170.816 458.606 C 168.295 460.037,166.045 461.419,165.816 461.677 C 165.587 461.936,165.850 461.874,166.400 461.542 C 166.950 461.209,169.245 459.897,171.500 458.626 C 174.999 456.654,176.008 455.992,175.500 456.002 C 175.445 456.003,173.337 457.175,170.816 458.606 M209.359 468.000 C 209.359 471.190,209.421 472.495,209.497 470.900 C 209.573 469.305,209.573 466.695,209.497 465.100 C 209.421 463.505,209.359 464.810,209.359 468.000 M157.700 466.229 C 156.325 467.009,155.200 467.743,155.200 467.861 C 155.200 468.099,159.576 465.722,160.180 465.156 C 160.857 464.521,160.248 464.785,157.700 466.229 M153.500 468.629 C 152.005 469.440,152.096 469.778,153.600 469.000 C 154.260 468.659,154.800 468.294,154.800 468.190 C 154.800 467.932,154.757 467.947,153.500 468.629 M143.100 474.629 C 141.605 475.440,141.696 475.778,143.200 475.000 C 143.860 474.659,144.400 474.294,144.400 474.190 C 144.400 473.932,144.357 473.947,143.100 474.629 M137.800 477.657 C 134.127 479.732,132.270 481.054,134.800 479.794 C 137.824 478.286,142.250 475.524,141.500 475.612 C 141.445 475.618,139.780 476.539,137.800 477.657 M207.314 480.200 C 207.317 481.300,207.395 481.703,207.487 481.095 C 207.579 480.486,207.577 479.586,207.482 479.095 C 207.387 478.603,207.311 479.100,207.314 480.200 M125.602 485.422 C 125.604 485.828,127.562 488.349,127.586 487.978 C 127.594 487.855,127.150 487.145,126.600 486.400 C 126.050 485.655,125.601 485.215,125.602 485.422 M206.253 490.436 C 206.114 491.131,206.021 492.173,206.047 492.750 C 206.072 493.327,206.255 492.827,206.452 491.639 C 206.837 489.321,206.673 488.334,206.253 490.436 M205.040 497.640 C 204.893 498.557,204.852 499.385,204.947 499.480 C 205.042 499.576,205.246 498.910,205.400 498.000 C 205.554 497.090,205.596 496.262,205.493 496.160 C 205.390 496.057,205.187 496.723,205.040 497.640 M136.299 499.000 C 137.644 500.540,140.867 503.870,143.461 506.400 C 147.510 510.347,147.304 510.092,142.012 504.600 C 133.815 496.094,133.446 495.732,136.299 499.000 M132.400 497.325 C 132.400 497.394,132.985 497.979,133.700 498.625 L 135.000 499.800 133.825 498.500 C 132.730 497.288,132.400 497.016,132.400 497.325 M136.800 502.200 C 137.995 503.410,139.063 504.400,139.173 504.400 C 139.283 504.400,138.395 503.410,137.200 502.200 C 136.005 500.990,134.937 500.000,134.827 500.000 C 134.717 500.000,135.605 500.990,136.800 502.200 M204.250 501.250 C 203.917 502.917,204.240 503.240,204.600 501.600 C 204.752 500.909,204.793 500.259,204.691 500.158 C 204.589 500.056,204.391 500.547,204.250 501.250 M203.086 505.286 C 202.721 506.425,202.490 507.423,202.571 507.504 C 202.652 507.585,203.025 506.729,203.400 505.600 C 203.775 504.471,204.006 503.473,203.915 503.381 C 203.823 503.290,203.450 504.147,203.086 505.286 M204.686 506.086 C 204.321 507.225,204.090 508.223,204.171 508.304 C 204.252 508.385,204.625 507.529,205.000 506.400 C 205.375 505.271,205.606 504.273,205.515 504.181 C 205.423 504.090,205.050 504.947,204.686 506.086 M141.000 506.800 C 142.083 507.900,143.060 508.800,143.170 508.800 C 143.280 508.800,142.483 507.900,141.400 506.800 C 140.317 505.700,139.340 504.800,139.230 504.800 C 139.120 504.800,139.917 505.700,141.000 506.800 M302.101 509.800 C 302.105 510.680,302.187 510.993,302.283 510.495 C 302.379 509.998,302.375 509.278,302.275 508.895 C 302.175 508.513,302.096 508.920,302.101 509.800 M145.000 510.400 C 145.859 511.280,146.652 512.000,146.762 512.000 C 146.872 512.000,146.259 511.280,145.400 510.400 C 144.541 509.520,143.748 508.800,143.638 508.800 C 143.528 508.800,144.141 509.520,145.000 510.400 M202.682 511.011 C 202.092 512.215,201.694 513.200,201.798 513.200 C 202.067 513.200,204.084 509.151,203.905 508.971 C 203.823 508.889,203.273 509.807,202.682 511.011 M150.682 515.241 C 151.225 515.915,154.800 518.546,154.800 518.273 C 154.800 518.176,153.765 517.319,152.500 516.370 C 151.235 515.421,150.417 514.913,150.682 515.241 M195.484 518.081 C 193.770 519.839,192.870 520.914,193.484 520.471 C 194.942 519.418,199.394 514.659,198.749 514.842 C 198.667 514.866,197.198 516.323,195.484 518.081 M155.294 516.496 C 156.695 517.679,158.999 519.046,158.655 518.490 C 158.511 518.255,157.449 517.503,156.296 516.818 C 154.790 515.923,154.508 515.832,155.294 516.496 M17.600 516.541 C 17.600 516.693,19.871 518.054,24.500 520.677 C 24.665 520.771,24.800 520.762,24.800 520.659 C 24.800 520.507,22.529 519.146,17.900 516.523 C 17.735 516.429,17.600 516.438,17.600 516.541 M196.786 519.500 L 194.600 521.800 196.900 519.614 C 198.165 518.411,199.200 517.376,199.200 517.314 C 199.200 517.017,198.818 517.363,196.786 519.500 M302.520 522.400 C 302.520 523.610,302.595 524.105,302.687 523.500 C 302.778 522.895,302.778 521.905,302.687 521.300 C 302.595 520.695,302.520 521.190,302.520 522.400 M166.400 522.808 C 167.297 523.399,171.959 524.803,172.942 524.778 C 173.414 524.766,172.501 524.416,170.914 524.000 C 169.327 523.584,167.674 523.054,167.240 522.822 C 166.246 522.289,165.598 522.279,166.400 522.808 M186.400 523.800 C 185.630 524.097,185.270 524.345,185.600 524.352 C 185.930 524.358,186.740 524.117,187.400 523.814 C 188.945 523.107,188.226 523.097,186.400 523.800 M190.000 524.200 C 189.010 524.730,188.342 525.172,188.516 525.182 C 188.941 525.206,192.000 523.634,192.000 523.392 C 192.000 523.127,192.017 523.120,190.000 524.200 M166.400 524.584 C 166.400 524.847,171.555 526.404,172.342 526.379 C 172.704 526.367,171.560 525.924,169.800 525.394 C 166.083 524.275,166.400 524.351,166.400 524.584 M174.705 525.083 C 175.202 525.179,175.922 525.175,176.305 525.075 C 176.687 524.975,176.280 524.896,175.400 524.901 C 174.520 524.905,174.207 524.987,174.705 525.083 M180.500 525.076 C 180.885 525.176,181.515 525.176,181.900 525.076 C 182.285 524.975,181.970 524.893,181.200 524.893 C 180.430 524.893,180.115 524.975,180.500 525.076 M182.600 526.400 L 181.000 526.686 182.400 526.703 C 183.170 526.713,184.250 526.576,184.800 526.400 C 186.085 525.988,184.899 525.988,182.600 526.400 M173.700 526.676 C 174.085 526.776,174.715 526.776,175.100 526.676 C 175.485 526.575,175.170 526.493,174.400 526.493 C 173.630 526.493,173.315 526.575,173.700 526.676 M35.600 526.948 C 35.600 527.044,36.545 527.659,37.700 528.313 C 38.855 528.966,40.475 529.901,41.300 530.390 C 42.125 530.879,42.800 531.192,42.800 531.085 C 42.800 530.978,41.585 530.175,40.100 529.300 C 36.721 527.310,35.600 526.724,35.600 526.948 M177.300 527.087 C 177.905 527.178,178.895 527.178,179.500 527.087 C 180.105 526.995,179.610 526.920,178.400 526.920 C 177.190 526.920,176.695 526.995,177.300 527.087 M56.400 538.979 C 56.400 539.089,56.940 539.459,57.600 539.800 C 58.260 540.141,58.800 540.331,58.800 540.221 C 58.800 540.111,58.260 539.741,57.600 539.400 C 56.940 539.059,56.400 538.869,56.400 538.979 M302.509 548.400 C 302.509 549.390,302.587 549.795,302.682 549.300 C 302.778 548.805,302.778 547.995,302.682 547.500 C 302.587 547.005,302.509 547.410,302.509 548.400 M71.600 547.779 C 71.600 547.889,72.140 548.259,72.800 548.600 C 73.460 548.941,74.000 549.131,74.000 549.021 C 74.000 548.911,73.460 548.541,72.800 548.200 C 72.140 547.859,71.600 547.669,71.600 547.779 M87.800 557.081 C 88.020 557.308,89.100 557.997,90.200 558.613 C 91.300 559.228,92.020 559.546,91.800 559.319 C 91.580 559.092,90.500 558.403,89.400 557.787 C 88.300 557.172,87.580 556.854,87.800 557.081 M121.656 559.418 C 122.374 560.418,123.230 561.453,123.559 561.718 C 123.887 561.983,123.379 561.165,122.430 559.900 C 120.387 557.178,119.772 556.795,121.656 559.418 M92.400 559.779 C 92.400 559.889,92.940 560.259,93.600 560.600 C 94.260 560.941,94.800 561.131,94.800 561.021 C 94.800 560.911,94.260 560.541,93.600 560.200 C 92.940 559.859,92.400 559.669,92.400 559.779 M105.600 567.348 C 105.600 567.444,106.545 568.059,107.700 568.713 C 108.855 569.366,110.475 570.301,111.300 570.790 C 112.125 571.279,112.800 571.592,112.800 571.485 C 112.800 571.378,111.585 570.575,110.100 569.700 C 106.721 567.710,105.600 567.124,105.600 567.348 M130.747 570.900 C 132.068 572.495,134.070 574.790,135.195 576.000 C 136.320 577.210,135.315 575.905,132.962 573.100 C 130.608 570.295,128.607 568.000,128.514 568.000 C 128.421 568.000,129.426 569.305,130.747 570.900 M137.200 578.525 C 137.200 578.594,137.785 579.179,138.500 579.825 L 139.800 581.000 138.625 579.700 C 137.530 578.488,137.200 578.216,137.200 578.525 M143.400 585.200 C 145.150 586.960,146.671 588.400,146.781 588.400 C 146.891 588.400,145.550 586.960,143.800 585.200 C 142.050 583.440,140.529 582.000,140.419 582.000 C 140.309 582.000,141.650 583.440,143.400 585.200 M297.450 586.850 C 297.117 588.517,297.440 588.840,297.800 587.200 C 297.952 586.509,297.993 585.859,297.891 585.758 C 297.789 585.656,297.591 586.147,297.450 586.850 M146.913 589.042 C 147.260 589.627,160.000 601.750,160.000 601.496 C 160.000 601.388,156.996 598.442,153.325 594.950 C 149.654 591.457,146.768 588.799,146.913 589.042 M296.229 591.429 C 296.081 592.015,296.038 592.572,296.132 592.666 C 296.227 592.760,296.424 592.358,296.571 591.771 C 296.719 591.185,296.762 590.628,296.668 590.534 C 296.573 590.440,296.376 590.842,296.229 591.429 M160.800 602.125 C 160.800 602.194,161.385 602.779,162.100 603.425 L 163.400 604.600 162.225 603.300 C 161.130 602.088,160.800 601.816,160.800 602.125 M163.914 604.871 C 164.535 605.649,170.400 610.532,170.400 610.271 C 170.400 610.169,168.825 608.768,166.900 607.156 C 164.975 605.545,163.631 604.517,163.914 604.871 M170.800 610.533 C 170.800 610.643,171.520 611.303,172.400 612.000 C 173.280 612.697,174.000 613.177,174.000 613.067 C 174.000 612.957,173.280 612.297,172.400 611.600 C 171.520 610.903,170.800 610.423,170.800 610.533 M286.103 614.200 C 284.741 616.290,283.705 618.000,283.801 618.000 C 284.003 618.000,287.644 612.640,288.352 611.300 C 289.330 609.452,288.505 610.514,286.103 614.200 M181.200 618.182 C 181.200 618.285,182.235 619.066,183.500 619.915 C 186.301 621.798,186.800 622.095,186.800 621.882 C 186.800 621.792,185.540 620.880,184.000 619.855 C 182.460 618.831,181.200 618.078,181.200 618.182 M276.200 626.299 C 274.000 628.423,273.100 629.418,274.200 628.512 C 276.178 626.882,280.746 622.382,280.386 622.419 C 280.284 622.430,278.400 624.176,276.200 626.299 M193.400 625.938 C 193.952 626.495,203.210 631.324,203.383 631.145 C 203.460 631.065,201.155 629.770,198.262 628.267 C 195.368 626.764,193.180 625.715,193.400 625.938 M223.600 638.400 C 224.150 638.576,224.960 638.720,225.400 638.720 C 226.033 638.720,225.992 638.654,225.200 638.400 C 224.650 638.224,223.840 638.080,223.400 638.080 C 222.767 638.080,222.808 638.146,223.600 638.400 M253.800 638.815 C 252.480 639.212,251.760 639.539,252.200 639.544 C 252.640 639.548,253.990 639.221,255.200 638.817 C 258.030 637.872,256.946 637.871,253.800 638.815 M234.300 640.282 C 234.795 640.378,235.605 640.378,236.100 640.282 C 236.595 640.187,236.190 640.109,235.200 640.109 C 234.210 640.109,233.805 640.187,234.300 640.282 M246.900 640.276 C 247.285 640.376,247.915 640.376,248.300 640.276 C 248.685 640.175,248.370 640.093,247.600 640.093 C 246.830 640.093,246.515 640.175,246.900 640.276 M240.112 640.695 C 241.164 640.777,242.784 640.776,243.712 640.692 C 244.640 640.608,243.780 640.541,241.800 640.542 C 239.820 640.543,239.060 640.612,240.112 640.695 " stroke="none" fill="#1e93ae" fill-rule="evenodd"></path><path id="path4" d="M90.800 5.846 C 87.830 7.508,84.140 9.643,82.600 10.590 C 79.974 12.205,77.022 13.905,58.400 24.534 C 54.330 26.857,50.100 29.291,49.000 29.942 C 47.900 30.593,43.310 33.246,38.800 35.839 C 34.290 38.431,29.700 41.120,28.600 41.814 C 27.500 42.509,24.530 44.213,22.000 45.602 C 19.470 46.990,15.690 49.153,13.600 50.407 C 11.510 51.661,8.480 53.450,6.866 54.381 L 3.932 56.075 6.466 57.596 C 7.860 58.432,11.880 60.753,15.400 62.753 C 18.920 64.753,22.970 67.098,24.400 67.964 C 25.830 68.831,29.719 71.072,33.042 72.945 C 36.366 74.818,41.496 77.774,44.442 79.515 C 47.389 81.255,52.320 84.117,55.400 85.874 C 69.348 93.833,75.963 97.649,78.000 98.914 C 79.210 99.666,82.090 101.328,84.400 102.608 C 86.710 103.888,91.390 106.584,94.800 108.598 C 98.210 110.613,103.700 113.800,107.000 115.680 C 110.300 117.560,115.371 120.471,118.269 122.149 C 124.634 125.835,123.704 125.819,129.685 122.344 C 132.388 120.773,137.570 117.786,141.200 115.705 C 148.207 111.688,148.647 111.434,162.000 103.677 C 170.637 98.660,181.211 92.564,192.000 86.382 C 195.190 84.554,200.770 81.310,204.400 79.173 C 208.030 77.035,212.215 74.621,213.700 73.807 C 217.129 71.927,217.203 72.122,211.900 69.089 C 209.425 67.674,204.970 65.115,202.000 63.403 C 199.030 61.690,193.004 58.235,188.609 55.724 C 184.214 53.213,180.330 50.898,179.977 50.580 C 179.625 50.261,179.220 50.000,179.076 50.000 C 178.932 50.000,175.347 47.991,171.107 45.536 C 166.868 43.080,161.510 39.996,159.200 38.683 C 156.890 37.369,151.220 34.098,146.600 31.413 C 141.980 28.728,136.040 25.295,133.400 23.784 C 122.082 17.305,111.671 11.285,110.000 10.252 C 106.460 8.066,96.993 2.814,96.600 2.819 C 96.380 2.822,93.770 4.184,90.800 5.846 M2.805 93.300 L 2.810 128.200 6.305 130.241 C 8.227 131.363,12.230 133.659,15.200 135.343 C 18.170 137.026,23.300 139.987,26.600 141.922 L 32.600 145.440 32.600 300.020 C 32.600 454.302,32.598 454.600,31.800 454.693 C 31.360 454.744,30.010 454.172,28.800 453.422 C 26.900 452.245,22.299 449.570,6.263 440.318 C 4.468 439.282,2.774 438.427,2.498 438.418 C 2.098 438.404,2.016 445.422,2.098 472.890 L 2.200 507.380 6.400 509.916 C 10.400 512.332,16.814 516.024,32.400 524.882 C 36.250 527.070,40.660 529.636,42.200 530.584 C 43.740 531.532,47.160 533.523,49.800 535.009 C 54.955 537.911,66.332 544.475,75.400 549.779 C 82.020 553.651,92.667 559.771,102.400 565.299 C 106.250 567.486,111.151 570.338,113.291 571.638 C 115.431 572.937,117.366 574.000,117.591 574.000 C 117.857 574.000,118.000 570.933,118.000 565.224 C 118.000 553.718,117.762 553.807,124.651 562.722 C 175.114 628.032,236.353 656.608,270.791 630.915 C 275.891 627.110,281.502 621.146,285.154 615.650 C 291.862 605.554,294.206 599.656,299.008 580.800 C 302.784 565.972,303.756 526.018,301.177 491.600 C 297.991 449.073,287.595 416.240,265.578 379.161 C 257.003 364.722,244.721 347.572,236.959 339.201 C 235.837 337.990,233.767 335.730,232.359 334.179 C 224.833 325.881,212.841 315.467,204.200 309.725 C 192.561 301.991,180.182 296.825,167.045 294.220 C 154.049 291.643,139.811 291.715,127.420 294.418 C 125.451 294.848,123.694 295.054,123.515 294.875 C 123.337 294.697,123.193 257.007,123.195 211.121 L 123.200 127.691 120.300 125.993 C 110.074 120.004,107.468 118.490,101.000 114.781 C 97.040 112.510,91.910 109.573,89.600 108.253 C 87.290 106.934,81.800 103.758,77.400 101.195 C 73.000 98.633,67.420 95.410,65.000 94.033 C 56.435 89.159,48.463 84.562,43.363 81.557 C 38.022 78.409,28.006 72.632,20.000 68.080 C 17.470 66.642,12.686 63.875,9.370 61.933 C 6.053 59.990,3.218 58.400,3.070 58.400 C 2.921 58.400,2.802 74.105,2.805 93.300 M138.279 364.429 C 158.477 366.681,177.008 380.427,193.702 405.540 C 196.243 409.363,201.201 419.509,203.359 425.303 C 211.305 446.631,211.573 491.406,203.863 509.200 C 191.585 537.535,157.917 530.920,130.576 494.800 C 129.327 493.150,128.092 491.620,127.831 491.400 C 127.571 491.180,126.422 489.758,125.279 488.240 L 123.200 485.481 123.200 425.328 C 123.200 377.568,123.303 365.138,123.700 364.994 C 125.934 364.187,133.486 363.895,138.279 364.429 M28.702 421.315 C 27.878 421.802,23.468 424.347,18.902 426.972 C 14.336 429.597,9.576 432.387,8.325 433.172 C 7.074 433.957,5.467 434.925,4.753 435.323 L 3.456 436.045 7.828 438.587 C 10.233 439.985,14.810 442.614,18.000 444.430 C 26.659 449.358,28.530 450.467,29.302 451.128 C 30.416 452.080,30.415 452.102,30.305 435.877 L 30.200 420.430 28.702 421.315 M203.000 440.344 C 200.237 442.026,187.057 449.693,182.800 452.095 C 180.270 453.523,174.240 456.995,169.400 459.812 C 164.560 462.629,158.710 466.012,156.400 467.329 C 154.090 468.647,148.600 471.826,144.200 474.395 C 139.800 476.963,134.760 479.850,133.000 480.810 C 131.240 481.770,128.865 483.116,127.722 483.802 L 125.645 485.048 127.414 487.624 C 142.031 508.903,163.688 524.802,178.200 524.905 C 194.330 525.020,202.007 515.617,206.371 490.400 C 207.915 481.480,207.945 454.410,206.420 447.200 C 206.211 446.210,205.822 444.095,205.556 442.500 C 205.036 439.386,204.842 439.223,203.000 440.344 " stroke="none" fill="#34cae5" fill-rule="evenodd"></path></g></svg>