<?xml version="1.0" encoding="utf-8"?>
<!-- Generator: Adobe Illustrator 21.0.0, SVG Export Plug-In . SVG Version: 6.00 Build 0)  -->
<svg version="1.1" id="Layer_1" xmlns="http://www.w3.org/2000/svg" xmlns:xlink="http://www.w3.org/1999/xlink" x="0px" y="0px"
	 viewBox="0 0 792 612" style="enable-background:new 0 0 792 612;" xml:space="preserve">
<style type="text/css">
	.st0{fill:#307BC0;}
	.st1{fill:#547EC0;}
	.st2{fill:#FFFFFF;}
	.st3{fill:none;}
</style>
<g>
	<g>
		<path class="st0" d="M294.3,140.9c-77,35.2-126.8,114.7-124.6,199.4c2.1,78.4,48.7,151.2,119.3,185.6
			c71.7,35,159.3,26.4,222.6-22.1c63.2-48.4,94.4-129.6,80.1-207.8c-14.3-78.2-73.6-143.5-149.9-165.6c-9.8-2.8-19.7-4.9-29.8-6.3
			c-3.9-0.6-5.6,5.5-1.7,6c76.7,10.8,142.7,64.7,167.7,138.3c25,73.8,5.5,157.4-49.6,212.4c-54.8,54.8-137.7,74.4-211.2,50
			c-71.8-23.8-125.9-87.1-138.5-161.7c-13.7-81,23.4-164.4,92.6-208.5c8.4-5.3,17.1-10.1,26.1-14.2
			C301.1,144.6,297.9,139.2,294.3,140.9L294.3,140.9z"/>
	</g>
</g>
<g>
	<g>
		<path class="st0" d="M271.5,87.7c18.7-10.7,37.4-21.5,56-32.2c-1.1,0-2.1,0-3.2,0c24.2,14.1,48.4,28.3,72.6,42.4
			c3.4,2,6.9,4,10.3,6c0-1.8,0-3.6,0-5.4c-18.9,10.5-37.7,21-56.6,31.5c1.1,0,2.1,0,3.2,0c-24-13.9-48.1-27.8-72.1-41.8
			c-3.4-2-6.8-3.9-10.2-5.9c-3.5-2-6.6,3.4-3.2,5.4c20.5,11.9,41,23.7,61.5,35.6c5,2.9,10.1,5.8,15.1,8.8c1.8,1,3.7,2.6,5.7,3.3
			c3.1,1.1,6.6-1.9,9.3-3.4c6-3.3,11.9-6.6,17.9-9.9c10.9-6,21.7-12.1,32.6-18.1c2.1-1.1,2-4.2,0-5.4
			c-24.2-14.1-48.4-28.3-72.6-42.4c-3.4-2-6.9-4-10.3-6c-1-0.6-2.2-0.6-3.2,0c-18.7,10.7-37.4,21.5-56,32.2
			C264.9,84.3,268,89.7,271.5,87.7z"/>
	</g>
</g>
<g>
	<path class="st1" d="M408.9,101.2"/>
	<g>
		<path class="st2" d="M408.9,104.3c4,0,4-6.2,0-6.2C404.9,98.1,404.9,104.3,408.9,104.3L408.9,104.3z"/>
	</g>
</g>
<g>
	<g>
		<path class="st0" d="M349.2,132.7c0,47.3,0,94.6,0,141.9c0,6.6,0,13.1,0,19.7c0,2.4,2.7,3.9,4.7,2.7
			c18.9-10.8,37.7-21.7,56.6-32.5c1-0.5,1.5-1.6,1.5-2.7c0-46.9,0-93.7,0-140.6c0-6.6,0-13.2,0-19.9c0-2.4-2.6-3.8-4.7-2.7
			c-18.9,10.5-37.7,21-56.6,31.5c-3.5,2-0.4,7.4,3.2,5.4c18.9-10.5,37.7-21,56.6-31.5c-1.6-0.9-3.1-1.8-4.7-2.7
			c0,46.9,0,93.7,0,140.6c0,6.6,0,13.2,0,19.9c0.5-0.9,1-1.8,1.5-2.7c-18.9,10.8-37.7,21.7-56.6,32.5c1.6,0.9,3.1,1.8,4.7,2.7
			c0-47.3,0-94.6,0-141.9c0-6.6,0-13.1,0-19.7C355.5,128.7,349.2,128.7,349.2,132.7z"/>
	</g>
</g>
<g>
	<g>
		<path class="st0" d="M353.9,296.9c18.9-10.8,37.7-21.7,56.6-32.5c-1.1,0-2.1,0-3.2,0c11.4,5.7,22.1,12.9,32.3,20.4
			c21.7,15.9,41.7,35.3,55.6,58.6c15.2,25.4,24.4,59.9,12.1,88.3c-4.7,10.7-12.3,16.8-20.8,24.3c-14.7,13.1-29.4,26.1-44.1,39.2
			c-3,2.7,1.4,7.1,4.4,4.4c17.1-15.2,34.2-30.4,51.3-45.6c17-15.1,22.4-37.5,20.4-59.8c-3.6-39.3-26.9-72.8-55.6-98.5
			c-11-9.9-23-18.8-35.5-26.8c-5.2-3.3-11.1-7.9-17-9.9c-3.2-1.1-6.6,1.9-9.3,3.5c-6.5,3.8-13.1,7.5-19.6,11.3
			c-10.3,5.9-20.6,11.8-30.9,17.8C347.3,293.6,350.4,299,353.9,296.9L353.9,296.9z"/>
	</g>
</g>
<g>
	<g>
		<path class="st0" d="M266.8,85c0,10.9,0,21.8,0,32.7c0,1.1,0.6,2.2,1.5,2.7c9.2,5,18.4,10,27.6,14.9c-0.5-0.9-1-1.8-1.5-2.7
			c0,32.7,0,65.4,0,98.1c0,51.9,0,103.8,0,155.7c0,11.9,0,23.8,0,35.7c1.6-0.9,3.1-1.8,4.7-2.7c-9.8-5.7-19.6-11.4-29.5-17.1
			c-2-1.2-4.7,0.3-4.7,2.7c0,11.1,0,22.2,0,33.4c0,1.1,0.6,2.2,1.5,2.7c26.9,15,53.9,30,80.8,45c14.2,7.9,28.6,15.2,44.4,19.5
			c12.6,3.4,26.4,5.2,39.2,1.7c14.3-3.9,24.4-14.5,29.7-28.1c8.8-22.2,7.3-49.6,2.8-72.6c-4.7-24.2-16.1-46.6-32.3-65
			c-13-14.7-28.9-26.9-46.1-36.4c-9.3-5.2-19.9-10.9-30.4-13.4c-0.6-0.1-1.1-0.3-1.6-0.5c0.8,1,1.5,2,2.3,3c0-36.9,0-73.7,0-110.6
			c0-16.4,0.2-32.8,0-49.2c-0.1-4-2.3-4.9-5.5-6.8c-8.3-4.8-16.6-9.6-24.9-14.4c-17.8-10.3-35.7-20.7-53.5-31
			c-3.5-2-6.6,3.4-3.2,5.4c24,13.9,48.1,27.8,72.1,41.8c3.4,2,6.8,3.9,10.2,5.9c-0.5-0.9-1-1.8-1.5-2.7c0,47.3,0,94.6,0,141.9
			c0,6.6,0,13.1,0,19.7c0,1.4,1,2.6,2.3,3c23.2,6.6,45.7,20.6,63.4,36.7c16.8,15.3,30.2,34.3,37.6,55.9c8.1,23.5,10.8,51.4,5.6,75.8
			c-3,14.2-10,28.2-24.1,34.1c-11.5,4.8-24.8,3.7-36.7,0.9c-15.6-3.6-30-10.3-43.9-18.2c-27-15.3-54.2-30.2-81.3-45.2
			c-0.8-0.5-1.7-0.9-2.5-1.4c0.5,0.9,1,1.8,1.5,2.7c0-11.1,0-22.2,0-33.4c-1.6,0.9-3.1,1.8-4.7,2.7c9.8,5.7,19.6,11.4,29.5,17.1
			c2,1.2,4.7-0.3,4.7-2.7c0-32.7,0-65.4,0-98.1c0-51.9,0-103.8,0-155.7c0-11.9,0-23.8,0-35.7c0-1.1-0.6-2.2-1.5-2.7
			c-9.2-5-18.4-10-27.6-14.9c0.5,0.9,1,1.8,1.5,2.7c0-10.9,0-21.8,0-32.7C273.1,81,266.8,81,266.8,85z"/>
	</g>
</g>
<g>
	<g>
		<path class="st0" d="M347.1,331.3c0.1,34.8,0.2,69.6,0.3,104.4c0,1.3-0.3,3.2,0.3,4.5c1.3,2.9,6.5,5.2,9,6.8
			c11.7,7.8,24.8,17,39.4,17.3c32.5,0.5,30.5-43.3,24.6-64.7c-5.9-21.2-19.3-36.8-36.3-50.2c-10-7.9-20.9-15.3-32.5-20.7
			c-3.6-1.7-6.8,3.7-3.2,5.4c9.2,4.3,18,10,26.2,16c16,11.7,30.7,25.5,37.6,44.4c5,13.6,7.6,30.2,4.4,44.6
			c-1.4,6.2-4.2,12.6-9.8,16.2c-6.8,4.3-15.4,3.1-22.6,0.5c-11.6-4.2-22.3-12.2-32.3-19.4c0.5,0.9,1,1.8,1.5,2.7
			c-0.1-31.4-0.2-62.7-0.3-94.1c0-4.5,0-9.1,0-13.6C353.3,327.3,347,327.3,347.1,331.3z"/>
	</g>
</g>
<g>
	<g>
		<path class="st0" d="M407.5,384.1c0.5,5.8,1,11.6,1.4,17.4c0.2,1.9,0,4.4,0.8,6.2c1.6,3.2,5.8,6.2,8.6,8.2c3.2,2.4,6.4-3,3.2-5.4
			c-1.9-1.4-3.6-3.1-5.2-4.8c0.1,0.1-1.5-1.7-1.5-1.7c0.5-0.4,0.2,2.9,0.8,1.7c0.7-1.4-0.4-5.4-0.6-6.8c-0.4-4.9-0.8-9.9-1.2-14.8
			C413.4,380.1,407.1,380.1,407.5,384.1L407.5,384.1z"/>
	</g>
</g>
<g>
	<g>
		<path class="st0" d="M410.1,402.8c-20,11-39.9,22-59.9,33c-3.5,1.9-0.4,7.3,3.2,5.4c20-11,39.9-22,59.9-33
			C416.8,406.3,413.7,400.9,410.1,402.8L410.1,402.8z"/>
	</g>
</g>
<g>
	<g>
		<path class="st0" d="M296,386.3c-9.2,5.1-18.4,10.1-27.6,15.2c-3.5,1.9-0.4,7.3,3.2,5.4c9.2-5.1,18.4-10.1,27.6-15.2
			C302.7,389.8,299.5,384.4,296,386.3L296,386.3z"/>
	</g>
</g>
<polygon class="st3" points="296.1,418.7 296.1,393 272.1,405.8 "/>
</svg>
